<?xml version="1.0" encoding="UTF-8" standalone="no"?>
<!DOCTYPE svg PUBLIC "-//W3C//DTD SVG 1.1//EN"
 "http://www.w3.org/Graphics/SVG/1.1/DTD/svg11.dtd">
<!-- Generated by graphviz version 2.34.0 (20140109.1026)
 -->
<!-- Title: G Pages: 1 -->
<svg width="2346pt" height="315pt"
 viewBox="0.00 0.00 2346.00 315.00" xmlns="http://www.w3.org/2000/svg" xmlns:xlink="http://www.w3.org/1999/xlink">
<g id="graph0" class="graph" transform="scale(1 1) rotate(0) translate(4 311)">
<title>G</title>
<polygon fill="white" stroke="white" points="-4,4 -4,-311 2342,-311 2342,4 -4,4"/>
<g id="clust1" class="cluster"><title>cluster_0</title>
<polygon fill="none" stroke="blue" points="8,-8 8,-299 1022,-299 1022,-8 8,-8"/>
<text text-anchor="middle" x="515" y="-283.8" font-family="Times,serif" font-size="14.00">Design Phase</text>
</g>
<g id="clust3" class="cluster"><title>cluster_1</title>
<polygon fill="none" stroke="black" points="1042,-62 1042,-299 1854,-299 1854,-62 1042,-62"/>
<text text-anchor="middle" x="1448" y="-283.8" font-family="Times,serif" font-size="14.00">Shipment 1 &#45; Single MO with 1 Attribute (Tracer)</text>
</g>
<g id="clust5" class="cluster"><title>cluster_2</title>
<polygon fill="none" stroke="black" points="1874,-18 1874,-201 2222,-201 2222,-18 1874,-18"/>
<text text-anchor="middle" x="2048" y="-185.8" font-family="Times,serif" font-size="14.00">Shipment 2 &#45; TBD</text>
</g>
<g id="clust6" class="cluster"><title>cluster_3</title>
<polygon fill="none" stroke="black" points="2242,-49 2242,-124 2330,-124 2330,-49 2242,-49"/>
<text text-anchor="middle" x="2286" y="-108.8" font-family="Times,serif" font-size="14.00">Shipment ... </text>
</g>
<!-- WP1_40 -->
<g id="node1" class="node"><title>WP1_40</title>
<polygon fill="none" stroke="black" points="824,-52 672,-52 672,-16 824,-16 824,-52"/>
<text text-anchor="middle" x="748" y="-30.3" font-family="Times,serif" font-size="14.00">MOMR Spec Validation</text>
</g>
<!-- WP2_130 -->
<g id="node18" class="node"><title>WP2_130</title>
<polygon fill="none" stroke="black" points="1222,-106 1050,-106 1050,-70 1222,-70 1222,-106"/>
<text text-anchor="middle" x="1136" y="-84.3" font-family="Times,serif" font-size="14.00">MOMR and IML Reference</text>
</g>
<!-- WP1_40&#45;&gt;WP2_130 -->
<g id="edge26" class="edge"><title>WP1_40&#45;&gt;WP2_130</title>
<path fill="none" stroke="black" d="M824.341,-44.5399C885.904,-53.1524 973.294,-65.378 1039.71,-74.6697"/>
<polygon fill="black" stroke="black" points="1039.38,-78.1573 1049.77,-76.0766 1040.35,-71.2248 1039.38,-78.1573"/>
</g>
<!-- WP1_50 -->
<g id="node2" class="node"><title>WP1_50</title>
<polygon fill="none" stroke="black" points="814.5,-106 681.5,-106 681.5,-70 814.5,-70 814.5,-106"/>
<text text-anchor="middle" x="748" y="-84.3" font-family="Times,serif" font-size="14.00">IML Spec Validation</text>
</g>
<!-- WP1_50&#45;&gt;WP2_130 -->
<g id="edge27" class="edge"><title>WP1_50&#45;&gt;WP2_130</title>
<path fill="none" stroke="black" d="M814.917,-88C876.692,-88 969.735,-88 1039.61,-88"/>
<polygon fill="black" stroke="black" points="1039.74,-91.5001 1049.74,-88 1039.74,-84.5001 1039.74,-91.5001"/>
</g>
<!-- WP1_100 -->
<g id="node3" class="node"><title>WP1_100</title>
<polygon fill="none" stroke="black" points="816.5,-214 679.5,-214 679.5,-178 816.5,-178 816.5,-214"/>
<text text-anchor="middle" x="748" y="-192.3" font-family="Times,serif" font-size="14.00">RT Design Validation</text>
</g>
<!-- WP1_120 -->
<g id="node14" class="node"><title>WP1_120</title>
<polygon fill="none" stroke="black" points="1014,-214 904,-214 904,-178 1014,-178 1014,-214"/>
<text text-anchor="middle" x="959" y="-192.3" font-family="Times,serif" font-size="14.00">Execution Ready</text>
</g>
<!-- WP1_100&#45;&gt;WP1_120 -->
<g id="edge8" class="edge"><title>WP1_100&#45;&gt;WP1_120</title>
<path fill="none" stroke="black" d="M816.568,-196C841.3,-196 869.199,-196 893.643,-196"/>
<polygon fill="black" stroke="black" points="893.888,-199.5 903.888,-196 893.888,-192.5 893.888,-199.5"/>
</g>
<!-- WP1_110 -->
<g id="node4" class="node"><title>WP1_110</title>
<polygon fill="none" stroke="black" points="835.5,-160 660.5,-160 660.5,-124 835.5,-124 835.5,-160"/>
<text text-anchor="middle" x="748" y="-138.3" font-family="Times,serif" font-size="14.00">Meta&#45;data Design Validation</text>
</g>
<!-- WP1_110&#45;&gt;WP1_120 -->
<g id="edge9" class="edge"><title>WP1_110&#45;&gt;WP1_120</title>
<path fill="none" stroke="black" d="M831.759,-160.01C843.945,-162.884 856.322,-165.927 868,-169 876.482,-171.232 885.371,-173.717 894.122,-176.251"/>
<polygon fill="black" stroke="black" points="893.334,-179.667 903.914,-179.121 895.303,-172.95 893.334,-179.667"/>
</g>
<!-- WP1_110&#45;&gt;WP2_130 -->
<g id="edge28" class="edge"><title>WP1_110&#45;&gt;WP2_130</title>
<path fill="none" stroke="black" d="M835.626,-129.881C896.266,-121.398 977.28,-110.064 1039.74,-101.327"/>
<polygon fill="black" stroke="black" points="1040.57,-104.744 1049.99,-99.8923 1039.6,-97.8116 1040.57,-104.744"/>
</g>
<!-- WP1_10 -->
<g id="node5" class="node"><title>WP1_10</title>
<polygon fill="none" stroke="black" points="522,-214 352,-214 352,-178 522,-178 522,-214"/>
<text text-anchor="middle" x="437" y="-192.3" font-family="Times,serif" font-size="14.00">Component API Definitions</text>
</g>
<!-- WP1_10&#45;&gt;WP1_100 -->
<g id="edge1" class="edge"><title>WP1_10&#45;&gt;WP1_100</title>
<path fill="none" stroke="black" d="M522.027,-196C567.871,-196 624.249,-196 669.099,-196"/>
<polygon fill="black" stroke="black" points="669.359,-199.5 679.359,-196 669.359,-192.5 669.359,-199.5"/>
</g>
<!-- WP1_20 -->
<g id="node6" class="node"><title>WP1_20</title>
<polygon fill="none" stroke="black" points="231.5,-241 30.5,-241 30.5,-205 231.5,-205 231.5,-241"/>
<text text-anchor="middle" x="131" y="-219.3" font-family="Times,serif" font-size="14.00">Identify Full Set of MDI Features</text>
</g>
<!-- WP1_30 -->
<g id="node7" class="node"><title>WP1_30</title>
<polygon fill="none" stroke="black" points="246,-160 16,-160 16,-124 246,-124 246,-160"/>
<text text-anchor="middle" x="131" y="-138.3" font-family="Times,serif" font-size="14.00">Define deliverables for Migration Start</text>
</g>
<!-- WP1_35 -->
<g id="node8" class="node"><title>WP1_35</title>
<polygon fill="none" stroke="black" points="583.5,-268 290.5,-268 290.5,-232 583.5,-232 583.5,-268"/>
<text text-anchor="middle" x="437" y="-246.3" font-family="Times,serif" font-size="14.00">Componentize Existing OMI and re&#45;brand to MDI</text>
</g>
<!-- WP1_37 -->
<g id="node9" class="node"><title>WP1_37</title>
<polygon fill="none" stroke="black" points="868,-268 628,-268 628,-232 868,-232 868,-268"/>
<text text-anchor="middle" x="748" y="-246.3" font-family="Times,serif" font-size="14.00">Build and Test Env in MDI Components</text>
</g>
<!-- WP1_35&#45;&gt;WP1_37 -->
<g id="edge6" class="edge"><title>WP1_35&#45;&gt;WP1_37</title>
<path fill="none" stroke="black" d="M583.904,-250C595.15,-250 606.457,-250 617.585,-250"/>
<polygon fill="black" stroke="black" points="617.748,-253.5 627.748,-250 617.748,-246.5 617.748,-253.5"/>
</g>
<!-- WP1_37&#45;&gt;WP1_120 -->
<g id="edge7" class="edge"><title>WP1_37&#45;&gt;WP1_120</title>
<path fill="none" stroke="black" d="M831.759,-231.99C843.945,-229.116 856.322,-226.073 868,-223 876.482,-220.768 885.371,-218.283 894.122,-215.749"/>
<polygon fill="black" stroke="black" points="895.303,-219.05 903.914,-212.879 893.334,-212.333 895.303,-219.05"/>
</g>
<!-- WP1_60 -->
<g id="node10" class="node"><title>WP1_60</title>
<polygon fill="none" stroke="black" points="591.5,-160 282.5,-160 282.5,-124 591.5,-124 591.5,-160"/>
<text text-anchor="middle" x="437" y="-138.3" font-family="Times,serif" font-size="14.00">Operation use&#45;cases for variation in data&#45;organization</text>
</g>
<!-- WP1_60&#45;&gt;WP1_100 -->
<g id="edge2" class="edge"><title>WP1_60&#45;&gt;WP1_100</title>
<path fill="none" stroke="black" d="M541.322,-160.056C583.035,-167.346 630.359,-175.616 669.088,-182.384"/>
<polygon fill="black" stroke="black" points="668.802,-185.887 679.255,-184.161 670.007,-178.992 668.802,-185.887"/>
</g>
<!-- WP1_70 -->
<g id="node11" class="node"><title>WP1_70</title>
<polygon fill="none" stroke="black" points="196.5,-52 65.5,-52 65.5,-16 196.5,-16 196.5,-52"/>
<text text-anchor="middle" x="131" y="-30.3" font-family="Times,serif" font-size="14.00">Meta&#45;data Definition</text>
</g>
<!-- WP1_90 -->
<g id="node13" class="node"><title>WP1_90</title>
<polygon fill="none" stroke="black" points="517.5,-52 356.5,-52 356.5,-16 517.5,-16 517.5,-52"/>
<text text-anchor="middle" x="437" y="-30.3" font-family="Times,serif" font-size="14.00">Meta&#45;data in XML format</text>
</g>
<!-- WP1_70&#45;&gt;WP1_90 -->
<g id="edge3" class="edge"><title>WP1_70&#45;&gt;WP1_90</title>
<path fill="none" stroke="black" d="M196.843,-34C240.391,-34 298.356,-34 346.313,-34"/>
<polygon fill="black" stroke="black" points="346.386,-37.5001 356.386,-34 346.385,-30.5001 346.386,-37.5001"/>
</g>
<!-- WP1_80 -->
<g id="node12" class="node"><title>WP1_80</title>
<polygon fill="none" stroke="black" points="511.5,-106 362.5,-106 362.5,-70 511.5,-70 511.5,-106"/>
<text text-anchor="middle" x="437" y="-84.3" font-family="Times,serif" font-size="14.00">Type&#45;System Definition</text>
</g>
<!-- WP1_80&#45;&gt;WP1_100 -->
<g id="edge5" class="edge"><title>WP1_80&#45;&gt;WP1_100</title>
<path fill="none" stroke="black" d="M511.79,-88.9837C538.797,-92.2947 568.472,-99.6467 592,-115 616.156,-130.763 604.242,-152.643 628,-169 640.264,-177.443 654.762,-183.285 669.345,-187.319"/>
<polygon fill="black" stroke="black" points="668.878,-190.809 679.428,-189.831 670.571,-184.017 668.878,-190.809"/>
</g>
<!-- WP1_90&#45;&gt;WP1_110 -->
<g id="edge4" class="edge"><title>WP1_90&#45;&gt;WP1_110</title>
<path fill="none" stroke="black" d="M517.7,-35.7687C543.065,-39.4022 570.177,-46.7593 592,-61 616.156,-76.7634 604.242,-98.643 628,-115 635.023,-119.835 642.78,-123.818 650.865,-127.096"/>
<polygon fill="black" stroke="black" points="649.89,-130.466 660.484,-130.629 652.304,-123.896 649.89,-130.466"/>
</g>
<!-- WP2_10 -->
<g id="node15" class="node"><title>WP2_10</title>
<polygon fill="none" stroke="black" points="1181.5,-160 1090.5,-160 1090.5,-124 1181.5,-124 1181.5,-160"/>
<text text-anchor="middle" x="1136" y="-138.3" font-family="Times,serif" font-size="14.00">CAL Adapter</text>
</g>
<!-- WP1_120&#45;&gt;WP2_10 -->
<g id="edge23" class="edge"><title>WP1_120&#45;&gt;WP2_10</title>
<path fill="none" stroke="black" d="M1014.17,-177.864C1023.43,-174.847 1032.98,-171.793 1042,-169 1054.42,-165.154 1067.82,-161.168 1080.48,-157.477"/>
<polygon fill="black" stroke="black" points="1081.81,-160.736 1090.44,-154.589 1079.86,-154.013 1081.81,-160.736"/>
</g>
<!-- WP2_40 -->
<g id="node16" class="node"><title>WP2_40</title>
<polygon fill="none" stroke="black" points="1164,-268 1108,-268 1108,-232 1164,-232 1164,-268"/>
<text text-anchor="middle" x="1136" y="-246.3" font-family="Times,serif" font-size="14.00">Parsers</text>
</g>
<!-- WP1_120&#45;&gt;WP2_40 -->
<g id="edge24" class="edge"><title>WP1_120&#45;&gt;WP2_40</title>
<path fill="none" stroke="black" d="M1014.17,-214.136C1023.43,-217.153 1032.98,-220.207 1042,-223 1060.39,-228.696 1080.94,-234.699 1098.04,-239.595"/>
<polygon fill="black" stroke="black" points="1097.08,-242.962 1107.66,-242.338 1099,-236.231 1097.08,-242.962"/>
</g>
<!-- WP2_60 -->
<g id="node17" class="node"><title>WP2_60</title>
<polygon fill="none" stroke="black" points="1179,-214 1093,-214 1093,-178 1179,-178 1179,-214"/>
<text text-anchor="middle" x="1136" y="-192.3" font-family="Times,serif" font-size="14.00">CCDB Store</text>
</g>
<!-- WP1_120&#45;&gt;WP2_60 -->
<g id="edge25" class="edge"><title>WP1_120&#45;&gt;WP2_60</title>
<path fill="none" stroke="black" d="M1014.41,-196C1036.14,-196 1061.06,-196 1082.59,-196"/>
<polygon fill="black" stroke="black" points="1082.85,-199.5 1092.85,-196 1082.85,-192.5 1082.85,-199.5"/>
</g>
<!-- WP2_20 -->
<g id="node19" class="node"><title>WP2_20</title>
<polygon fill="none" stroke="black" points="1362,-140 1264,-140 1264,-104 1362,-104 1362,-140"/>
<text text-anchor="middle" x="1313" y="-118.3" font-family="Times,serif" font-size="14.00">MDCL Engine</text>
</g>
<!-- WP2_10&#45;&gt;WP2_20 -->
<g id="edge10" class="edge"><title>WP2_10&#45;&gt;WP2_20</title>
<path fill="none" stroke="black" d="M1181.61,-136.901C1203.49,-134.401 1230.12,-131.358 1253.59,-128.675"/>
<polygon fill="black" stroke="black" points="1254.24,-132.123 1263.78,-127.511 1253.45,-125.169 1254.24,-132.123"/>
</g>
<!-- WP2_50 -->
<g id="node21" class="node"><title>WP2_50</title>
<polygon fill="none" stroke="black" points="1499,-268 1431,-268 1431,-232 1499,-232 1499,-268"/>
<text text-anchor="middle" x="1465" y="-246.3" font-family="Times,serif" font-size="14.00">Meta DB</text>
</g>
<!-- WP2_40&#45;&gt;WP2_50 -->
<g id="edge13" class="edge"><title>WP2_40&#45;&gt;WP2_50</title>
<path fill="none" stroke="black" d="M1164.04,-250C1220.66,-250 1352.1,-250 1420.65,-250"/>
<polygon fill="black" stroke="black" points="1420.69,-253.5 1430.69,-250 1420.69,-246.5 1420.69,-253.5"/>
</g>
<!-- WP2_70 -->
<g id="node22" class="node"><title>WP2_70</title>
<polygon fill="none" stroke="black" points="1368,-194 1258,-194 1258,-158 1368,-158 1368,-194"/>
<text text-anchor="middle" x="1313" y="-172.3" font-family="Times,serif" font-size="14.00">CCDB Transport</text>
</g>
<!-- WP2_60&#45;&gt;WP2_70 -->
<g id="edge15" class="edge"><title>WP2_60&#45;&gt;WP2_70</title>
<path fill="none" stroke="black" d="M1179.36,-191.159C1199.89,-188.812 1224.99,-185.944 1247.81,-183.336"/>
<polygon fill="black" stroke="black" points="1248.23,-186.811 1257.76,-182.198 1247.43,-179.857 1248.23,-186.811"/>
</g>
<!-- WP2_100 -->
<g id="node25" class="node"><title>WP2_100</title>
<polygon fill="none" stroke="black" points="1755,-229 1563,-229 1563,-193 1755,-193 1755,-229"/>
<text text-anchor="middle" x="1659" y="-207.3" font-family="Times,serif" font-size="14.00">CAL&#45;CCDB System Integration</text>
</g>
<!-- WP2_60&#45;&gt;WP2_100 -->
<g id="edge16" class="edge"><title>WP2_60&#45;&gt;WP2_100</title>
<path fill="none" stroke="black" d="M1179.26,-198.837C1202.49,-200.298 1231.82,-201.981 1258,-203 1357.84,-206.885 1471.77,-208.93 1552.44,-209.976"/>
<polygon fill="black" stroke="black" points="1552.56,-213.478 1562.6,-210.105 1552.65,-206.478 1552.56,-213.478"/>
</g>
<!-- WP2_130&#45;&gt;WP2_20 -->
<g id="edge19" class="edge"><title>WP2_130&#45;&gt;WP2_20</title>
<path fill="none" stroke="black" d="M1222.19,-104.552C1232.88,-106.629 1243.62,-108.715 1253.77,-110.686"/>
<polygon fill="black" stroke="black" points="1253.21,-114.143 1263.69,-112.614 1254.54,-107.271 1253.21,-114.143"/>
</g>
<!-- WP3_110 -->
<g id="node27" class="node"><title>WP3_110</title>
<polygon fill="none" stroke="black" points="2009.5,-116 1882.5,-116 1882.5,-80 2009.5,-80 2009.5,-116"/>
<text text-anchor="middle" x="1946" y="-94.3" font-family="Times,serif" font-size="14.00">MOMR User Guide</text>
</g>
<!-- WP2_130&#45;&gt;WP3_110 -->
<g id="edge31" class="edge"><title>WP2_130&#45;&gt;WP3_110</title>
<path fill="none" stroke="black" d="M1222,-83.171C1287.98,-79.8365 1381.77,-76 1464,-76 1464,-76 1464,-76 1660,-76 1732.33,-76 1814.68,-83.1311 1872.2,-89.2733"/>
<polygon fill="black" stroke="black" points="1871.96,-92.7682 1882.28,-90.3672 1872.72,-85.809 1871.96,-92.7682"/>
</g>
<!-- WP3_120 -->
<g id="node28" class="node"><title>WP3_120</title>
<polygon fill="none" stroke="black" points="2000,-62 1892,-62 1892,-26 2000,-26 2000,-62"/>
<text text-anchor="middle" x="1946" y="-40.3" font-family="Times,serif" font-size="14.00">IML User Guide</text>
</g>
<!-- WP2_130&#45;&gt;WP3_120 -->
<g id="edge32" class="edge"><title>WP2_130&#45;&gt;WP3_120</title>
<path fill="none" stroke="black" d="M1211.83,-69.9489C1277.79,-55.627 1376.71,-38 1464,-38 1464,-38 1464,-38 1660,-38 1736.33,-38 1824.14,-40.178 1881.89,-41.9096"/>
<polygon fill="black" stroke="black" points="1881.85,-45.41 1891.96,-42.216 1882.07,-38.4133 1881.85,-45.41"/>
</g>
<!-- WP2_30 -->
<g id="node20" class="node"><title>WP2_30</title>
<polygon fill="none" stroke="black" points="1526,-140 1404,-140 1404,-104 1526,-104 1526,-140"/>
<text text-anchor="middle" x="1465" y="-118.3" font-family="Times,serif" font-size="14.00">MDCL Op Storage</text>
</g>
<!-- WP2_20&#45;&gt;WP2_30 -->
<g id="edge11" class="edge"><title>WP2_20&#45;&gt;WP2_30</title>
<path fill="none" stroke="black" d="M1362.29,-122C1372.35,-122 1383.14,-122 1393.81,-122"/>
<polygon fill="black" stroke="black" points="1393.97,-125.5 1403.97,-122 1393.97,-118.5 1393.97,-125.5"/>
</g>
<!-- WP2_30&#45;&gt;WP2_100 -->
<g id="edge12" class="edge"><title>WP2_30&#45;&gt;WP2_100</title>
<path fill="none" stroke="black" d="M1510.81,-140.141C1516.07,-142.857 1521.25,-145.823 1526,-149 1544.29,-161.241 1542.9,-172.059 1562,-183 1565.69,-185.112 1569.54,-187.076 1573.51,-188.901"/>
<polygon fill="black" stroke="black" points="1572.35,-192.211 1582.92,-192.912 1575.09,-185.771 1572.35,-192.211"/>
</g>
<!-- WP2_50&#45;&gt;WP2_100 -->
<g id="edge14" class="edge"><title>WP2_50&#45;&gt;WP2_100</title>
<path fill="none" stroke="black" d="M1499.01,-243.296C1515.93,-239.858 1537.53,-235.471 1559.31,-231.047"/>
<polygon fill="black" stroke="black" points="1560.21,-234.435 1569.31,-229.015 1558.82,-227.575 1560.21,-234.435"/>
</g>
<!-- WP2_80 -->
<g id="node23" class="node"><title>WP2_80</title>
<polygon fill="none" stroke="black" points="1523,-194 1407,-194 1407,-158 1523,-158 1523,-194"/>
<text text-anchor="middle" x="1465" y="-172.3" font-family="Times,serif" font-size="14.00">CCDB RCM Mgr</text>
</g>
<!-- WP2_70&#45;&gt;WP2_80 -->
<g id="edge17" class="edge"><title>WP2_70&#45;&gt;WP2_80</title>
<path fill="none" stroke="black" d="M1368.15,-176C1377.4,-176 1387.1,-176 1396.64,-176"/>
<polygon fill="black" stroke="black" points="1396.89,-179.5 1406.89,-176 1396.89,-172.5 1396.89,-179.5"/>
</g>
<!-- WP2_90 -->
<g id="node24" class="node"><title>WP2_90</title>
<polygon fill="none" stroke="black" points="1755.5,-174 1562.5,-174 1562.5,-138 1755.5,-138 1755.5,-174"/>
<text text-anchor="middle" x="1659" y="-152.3" font-family="Times,serif" font-size="14.00">CCDB&#45;RDB System Integration</text>
</g>
<!-- WP2_80&#45;&gt;WP2_90 -->
<g id="edge18" class="edge"><title>WP2_80&#45;&gt;WP2_90</title>
<path fill="none" stroke="black" d="M1523.09,-170.053C1532.37,-169.086 1542.24,-168.058 1552.25,-167.015"/>
<polygon fill="black" stroke="black" points="1552.72,-170.486 1562.3,-165.969 1551.99,-163.524 1552.72,-170.486"/>
</g>
<!-- WP3_UNKNOWN -->
<g id="node30" class="node"><title>WP3_UNKNOWN</title>
<polygon fill="none" stroke="black" points="1973,-170 1919,-170 1919,-134 1973,-134 1973,-170"/>
<text text-anchor="middle" x="1946" y="-148.3" font-family="Times,serif" font-size="14.00">TBD</text>
</g>
<!-- WP2_90&#45;&gt;WP3_UNKNOWN -->
<g id="edge29" class="edge"><title>WP2_90&#45;&gt;WP3_UNKNOWN</title>
<path fill="none" stroke="black" d="M1755.69,-154.657C1808.17,-153.92 1870.17,-153.05 1908.54,-152.512"/>
<polygon fill="black" stroke="black" points="1908.76,-156.009 1918.71,-152.369 1908.66,-149.01 1908.76,-156.009"/>
</g>
<!-- WP2_150 -->
<g id="node26" class="node"><title>WP2_150</title>
<polygon fill="none" stroke="black" points="1846,-224 1792,-224 1792,-188 1846,-188 1846,-224"/>
<text text-anchor="middle" x="1819" y="-202.3" font-family="Times,serif" font-size="14.00">Demo</text>
</g>
<!-- WP2_100&#45;&gt;WP2_150 -->
<g id="edge20" class="edge"><title>WP2_100&#45;&gt;WP2_150</title>
<path fill="none" stroke="black" d="M1755.1,-207.99C1764.46,-207.694 1773.51,-207.408 1781.68,-207.149"/>
<polygon fill="black" stroke="black" points="1782,-210.641 1791.88,-206.827 1781.77,-203.645 1782,-210.641"/>
</g>
<!-- WP2_150&#45;&gt;WP3_UNKNOWN -->
<g id="edge30" class="edge"><title>WP2_150&#45;&gt;WP3_UNKNOWN</title>
<path fill="none" stroke="black" d="M1846.2,-194.68C1864.62,-186.724 1889.47,-175.988 1909.64,-167.274"/>
<polygon fill="black" stroke="black" points="1911.04,-170.484 1918.83,-163.305 1908.26,-164.058 1911.04,-170.484"/>
</g>
<!-- WP3_150 -->
<g id="node29" class="node"><title>WP3_150</title>
<polygon fill="none" stroke="black" points="2214,-116 2046,-116 2046,-80 2214,-80 2214,-116"/>
<text text-anchor="middle" x="2130" y="-94.3" font-family="Times,serif" font-size="14.00">Migration Developer Guide</text>
</g>
<!-- WP3_110&#45;&gt;WP3_150 -->
<g id="edge21" class="edge"><title>WP3_110&#45;&gt;WP3_150</title>
<path fill="none" stroke="black" d="M2009.63,-98C2017.99,-98 2026.69,-98 2035.43,-98"/>
<polygon fill="black" stroke="black" points="2035.68,-101.5 2045.68,-98 2035.68,-94.5001 2035.68,-101.5"/>
</g>
<!-- WP3_120&#45;&gt;WP3_150 -->
<g id="edge22" class="edge"><title>WP3_120&#45;&gt;WP3_150</title>
<path fill="none" stroke="black" d="M2000.13,-59.7642C2018.35,-65.1703 2039.04,-71.3079 2058.42,-77.0589"/>
<polygon fill="black" stroke="black" points="2057.53,-80.4461 2068.11,-79.9352 2059.52,-73.7352 2057.53,-80.4461"/>
</g>
<!-- WP4_UNKNOWN -->
<g id="node31" class="node"><title>WP4_UNKNOWN</title>
<polygon fill="none" stroke="black" points="2313,-93 2259,-93 2259,-57 2313,-57 2313,-93"/>
<text text-anchor="middle" x="2286" y="-71.3" font-family="Times,serif" font-size="14.00">...</text>
</g>
<!-- WP3_150&#45;&gt;WP4_UNKNOWN -->
<g id="edge33" class="edge"><title>WP3_150&#45;&gt;WP4_UNKNOWN</title>
<path fill="none" stroke="black" d="M2214.31,-85.5576C2226.43,-83.7476 2238.34,-81.969 2248.83,-80.4027"/>
<polygon fill="black" stroke="black" points="2249.42,-83.8527 2258.79,-78.9138 2248.39,-76.9295 2249.42,-83.8527"/>
</g>
<!-- WP3_UNKNOWN&#45;&gt;WP4_UNKNOWN -->
<g id="edge34" class="edge"><title>WP3_UNKNOWN&#45;&gt;WP4_UNKNOWN</title>
<path fill="none" stroke="black" d="M1973.08,-144.639C1985.22,-140.308 1999.3,-133.903 2010,-125 2032.18,-106.554 2020.57,-84.6105 2046,-71 2110.56,-36.4485 2199.67,-51.4268 2248.81,-64.0721"/>
<polygon fill="black" stroke="black" points="2248.1,-67.5058 2258.67,-66.7164 2249.92,-60.7449 2248.1,-67.5058"/>
</g>
</g>
</svg>
